<svg width="100" height="32" viewBox="0 0 100 32" fill="none" xmlns="http://www.w3.org/2000/svg">
<path d="M41.0498 23.8752V9.40526H46.7586C47.8514 9.40526 48.7841 9.60074 49.5565 9.99169C50.3337 10.3779 50.9249 10.9267 51.3299 11.6379C51.7397 12.3445 51.9446 13.1758 51.9446 14.132C51.9446 15.0929 51.7374 15.9196 51.3229 16.612C50.9084 17.2997 50.3078 17.8272 49.5212 18.1946C48.7393 18.562 47.7925 18.7457 46.6809 18.7457H42.8585V16.287H46.1863C46.7704 16.287 47.2556 16.2069 47.6418 16.0467C48.0281 15.8866 48.3154 15.6464 48.5038 15.3261C48.6969 15.0058 48.7935 14.6077 48.7935 14.132C48.7935 13.6516 48.6969 13.2465 48.5038 12.9168C48.3154 12.587 48.0257 12.3374 47.6347 12.1678C47.2485 11.9936 46.761 11.9064 46.1722 11.9064H44.1091V23.8752H41.0498ZM48.8641 17.2902L52.4604 23.8752H49.0832L45.5646 17.2902H48.8641Z" fill="#30374F"/>
<path d="M54.0501 23.8752V13.0227H57.06V23.8752H54.0501ZM55.5621 11.6238C55.1146 11.6238 54.7308 11.4754 54.4105 11.1787C54.0949 10.8772 53.9371 10.5169 53.9371 10.0977C53.9371 9.68317 54.0949 9.32754 54.4105 9.0308C54.7308 8.72934 55.1146 8.57861 55.5621 8.57861C56.0096 8.57861 56.3911 8.72934 56.7067 9.0308C57.027 9.32754 57.1872 9.68317 57.1872 10.0977C57.1872 10.5169 57.027 10.8772 56.7067 11.1787C56.3911 11.4754 56.0096 11.6238 55.5621 11.6238Z" fill="#30374F"/>
<path d="M59.471 27.9448V13.0227H62.4385V14.8456H62.5727C62.7046 14.5536 62.8954 14.2568 63.145 13.9554C63.3994 13.6492 63.7291 13.3949 64.1342 13.1923C64.544 12.9851 65.0527 12.8814 65.6603 12.8814C66.4516 12.8814 67.1817 13.0887 67.8506 13.5032C68.5195 13.913 69.0541 14.5324 69.4544 15.3614C69.8548 16.1857 70.055 17.2196 70.055 18.4631C70.055 19.6736 69.8595 20.6958 69.4686 21.5295C69.0823 22.3585 68.5548 22.9873 67.8859 23.4159C67.2218 23.8399 66.4776 24.0518 65.6533 24.0518C65.0692 24.0518 64.5723 23.9553 64.1625 23.7621C63.7574 23.569 63.4253 23.3264 63.1662 23.0344C62.9072 22.7377 62.7093 22.4386 62.5727 22.1371H62.4809V27.9448H59.471ZM62.4173 18.449C62.4173 19.0943 62.5068 19.6571 62.6858 20.1376C62.8648 20.618 63.1238 20.9925 63.463 21.261C63.8021 21.5248 64.2143 21.6567 64.6994 21.6567C65.1893 21.6567 65.6038 21.5224 65.9429 21.2539C66.2821 20.9807 66.5388 20.6039 66.7131 20.1235C66.8921 19.6383 66.9816 19.0801 66.9816 18.449C66.9816 17.8225 66.8944 17.2714 66.7201 16.7957C66.5459 16.3199 66.2891 15.9478 65.95 15.6793C65.6109 15.4108 65.194 15.2766 64.6994 15.2766C64.2096 15.2766 63.7951 15.4061 63.4559 15.6652C63.1215 15.9243 62.8648 16.2917 62.6858 16.7674C62.5068 17.2431 62.4173 17.8037 62.4173 18.449Z" fill="#30374F"/>
<path d="M72.0616 27.9448V13.0227H75.029V14.8456H75.1633C75.2952 14.5536 75.4859 14.2568 75.7356 13.9554C75.9899 13.6492 76.3196 13.3949 76.7247 13.1923C77.1345 12.9851 77.6432 12.8814 78.2508 12.8814C79.0422 12.8814 79.7723 13.0887 80.4411 13.5032C81.11 13.913 81.6446 14.5324 82.045 15.3614C82.4453 16.1857 82.6455 17.2196 82.6455 18.4631C82.6455 19.6736 82.45 20.6958 82.0591 21.5295C81.6729 22.3585 81.1453 22.9873 80.4764 23.4159C79.8123 23.8399 79.0681 24.0518 78.2438 24.0518C77.6597 24.0518 77.1628 23.9553 76.753 23.7621C76.3479 23.569 76.0158 23.3264 75.7568 23.0344C75.4977 22.7377 75.2999 22.4386 75.1633 22.1371H75.0714V27.9448H72.0616ZM75.0078 18.449C75.0078 19.0943 75.0973 19.6571 75.2763 20.1376C75.4553 20.618 75.7144 20.9925 76.0535 21.261C76.3927 21.5248 76.8048 21.6567 77.29 21.6567C77.7798 21.6567 78.1943 21.5224 78.5335 21.2539C78.8726 20.9807 79.1293 20.6039 79.3036 20.1235C79.4826 19.6383 79.5721 19.0801 79.5721 18.449C79.5721 17.8225 79.4849 17.2714 79.3107 16.7957C79.1364 16.3199 78.8797 15.9478 78.5405 15.6793C78.2014 15.4108 77.7845 15.2766 77.29 15.2766C76.8001 15.2766 76.3856 15.4061 76.0464 15.6652C75.712 15.9243 75.4553 16.2917 75.2763 16.7674C75.0973 17.2431 75.0078 17.8037 75.0078 18.449Z" fill="#30374F"/>
<path d="M87.6619 9.40526V23.8752H84.6521V9.40526H87.6619Z" fill="#30374F"/>
<path d="M95.0188 24.0871C93.9025 24.0871 92.9416 23.8611 92.1361 23.4089C91.3354 22.952 90.7183 22.3067 90.285 21.473C89.8516 20.6345 89.635 19.643 89.635 18.4984C89.635 17.3821 89.8516 16.4024 90.285 15.5592C90.7183 14.7161 91.3283 14.059 92.1149 13.588C92.9062 13.1169 93.8342 12.8814 94.8987 12.8814C95.6146 12.8814 96.2811 12.9968 96.8982 13.2276C97.5199 13.4537 98.0616 13.7952 98.5232 14.2521C98.9895 14.709 99.3522 15.2837 99.6113 15.9761C99.8704 16.6638 99.9999 17.4692 99.9999 18.3924V19.2191H90.8361V17.3538H97.1667C97.1667 16.9205 97.0725 16.5366 96.884 16.2022C96.6956 15.8677 96.4342 15.6063 96.0998 15.4179C95.7701 15.2248 95.3862 15.1282 94.9481 15.1282C94.4912 15.1282 94.0862 15.2342 93.7329 15.4462C93.3843 15.6534 93.1111 15.9337 92.9133 16.287C92.7155 16.6355 92.6142 17.0241 92.6095 17.4527V19.2262C92.6095 19.7631 92.7084 20.2271 92.9062 20.618C93.1088 21.009 93.3937 21.3104 93.7611 21.5224C94.1285 21.7344 94.5642 21.8404 95.0682 21.8404C95.4027 21.8404 95.7088 21.7932 95.9867 21.699C96.2646 21.6048 96.5025 21.4635 96.7003 21.2751C96.8982 21.0867 97.0489 20.8559 97.1525 20.5827L99.9363 20.7664C99.795 21.4353 99.5053 22.0193 99.0673 22.5186C98.6339 23.0132 98.0734 23.3994 97.3857 23.6774C96.7027 23.9505 95.9137 24.0871 95.0188 24.0871Z" fill="#30374F"/>
<g filter="url(#filter0_i_72_1522)">
<rect width="31.8338" height="31.8338" rx="15.9169" fill="url(#paint0_radial_72_1522)"/>
</g>
<rect x="0.2" y="0.2" width="31.4338" height="31.4338" rx="15.7169" stroke="url(#paint1_linear_72_1522)" stroke-opacity="0.6" stroke-width="0.4" style="mix-blend-mode:overlay"/>
<path d="M20.9358 18.3659C20.3254 18.0177 19.6381 17.9168 18.9572 17.8933C18.386 17.8736 17.5337 17.512 17.5337 16.4855C17.5337 15.7206 18.1613 15.1051 18.9575 15.0776C19.6383 15.0541 20.3256 14.9531 20.9358 14.6051C21.484 14.2925 21.9391 13.8428 22.2556 13.3013C22.5721 12.7598 22.7387 12.1456 22.7387 11.5204C22.7387 10.8951 22.5721 10.2809 22.2556 9.73941C21.9391 9.19793 21.4839 8.74829 20.9358 8.43567C20.3876 8.12306 19.7659 7.95848 19.1329 7.9585C18.5 7.95851 17.8782 8.12311 17.3301 8.43574C16.7819 8.74838 16.3268 9.19804 16.0103 9.73953C15.6938 10.281 15.5273 10.8953 15.5273 11.5205C15.5273 12.2106 15.7758 12.8457 16.0928 13.4347C16.3594 13.9301 16.4944 14.8496 15.5798 15.3712C14.8995 15.7592 14.0505 15.5135 13.6264 14.843C13.2682 14.2767 12.8357 13.7461 12.2303 13.4008C11.6822 13.0882 11.0604 12.9236 10.4275 12.9236C9.79454 12.9236 9.17276 13.0881 8.62462 13.4008C8.07649 13.7134 7.62131 14.163 7.30485 14.7045C6.98838 15.246 6.82178 15.8602 6.82178 16.4854C6.82178 17.1107 6.98838 17.7249 7.30485 18.2664C7.62131 18.8078 8.07649 19.2575 8.62462 19.5701C9.17276 19.8827 9.79454 20.0473 10.4275 20.0473C11.0604 20.0473 11.6822 19.8827 12.2303 19.5701C12.8356 19.2249 13.268 18.6946 13.626 18.1287C13.92 17.6639 14.6542 17.0715 15.5798 17.5998C16.2591 17.9875 16.469 18.837 16.0925 19.5366C15.7755 20.1256 15.5273 20.7605 15.5273 21.4505C15.5273 22.0757 15.6939 22.6899 16.0104 23.2314C16.3269 23.7729 16.782 24.2225 17.3302 24.5351C17.8783 24.8478 18.5001 25.0123 19.133 25.0123C19.7659 25.0123 20.3877 24.8478 20.9358 24.5351C21.4839 24.2225 21.9391 23.7729 22.2556 23.2314C22.572 22.69 22.7386 22.0757 22.7386 21.4505C22.7386 20.8253 22.572 20.2111 22.2556 19.6696C21.9391 19.1281 21.4839 18.6785 20.9358 18.3659Z" fill="white"/>
<defs>
<filter id="filter0_i_72_1522" x="0" y="-8" width="31.834" height="39.8337" filterUnits="userSpaceOnUse" color-interpolation-filters="sRGB">
<feFlood flood-opacity="0" result="BackgroundImageFix"/>
<feBlend mode="normal" in="SourceGraphic" in2="BackgroundImageFix" result="shape"/>
<feColorMatrix in="SourceAlpha" type="matrix" values="0 0 0 0 0 0 0 0 0 0 0 0 0 0 0 0 0 0 127 0" result="hardAlpha"/>
<feMorphology radius="4" operator="erode" in="SourceAlpha" result="effect1_innerShadow_72_1522"/>
<feOffset dy="-8"/>
<feGaussianBlur stdDeviation="4.85"/>
<feComposite in2="hardAlpha" operator="arithmetic" k2="-1" k3="1"/>
<feColorMatrix type="matrix" values="0 0 0 0 1 0 0 0 0 1 0 0 0 0 1 0 0 0 0.25 0"/>
<feBlend mode="overlay" in2="shape" result="effect1_innerShadow_72_1522"/>
</filter>
<radialGradient id="paint0_radial_72_1522" cx="0" cy="0" r="1" gradientUnits="userSpaceOnUse" gradientTransform="translate(17.6223 32.4023) rotate(-91.0051) scale(32.4073 56.684)">
<stop stop-color="#0066FF"/>
<stop offset="1" stop-color="#4083E7"/>
</radialGradient>
<linearGradient id="paint1_linear_72_1522" x1="15.9169" y1="-2.84231" x2="15.9169" y2="31.8338" gradientUnits="userSpaceOnUse">
<stop stop-color="white"/>
<stop offset="1" stop-color="white" stop-opacity="0"/>
</linearGradient>
</defs>
</svg>
