<svg width="14" height="14" viewBox="0 0 14 14" fill="none" xmlns="http://www.w3.org/2000/svg">
<circle cx="7" cy="7" r="7" fill="#0098FF"/>
<path d="M8.92979 7.85759C8.66135 7.69881 8.35905 7.65279 8.05962 7.64208C7.8084 7.63309 7.43359 7.46817 7.43359 7C7.43359 6.65118 7.70961 6.37045 8.05975 6.35792C8.35915 6.34721 8.66142 6.30113 8.92979 6.1424C9.17085 5.99982 9.37103 5.79475 9.51021 5.5478C9.64939 5.30084 9.72266 5.02071 9.72266 4.73555C9.72265 4.45039 9.64938 4.17026 9.5102 3.92331C9.37102 3.67636 9.17084 3.47129 8.92977 3.32871C8.6887 3.18614 8.41525 3.11108 8.1369 3.11108C7.85854 3.11109 7.58509 3.18616 7.34403 3.32874C7.10297 3.47133 6.90279 3.67641 6.76362 3.92336C6.62445 4.17032 6.55119 4.45046 6.5512 4.73562C6.5512 5.05036 6.66047 5.34 6.7999 5.60863C6.91717 5.83457 6.9765 6.25392 6.5743 6.49179C6.27511 6.66875 5.90172 6.5567 5.71522 6.25092C5.55768 5.99265 5.3675 5.75066 5.10124 5.59315C4.86018 5.45058 4.58674 5.37551 4.30838 5.37551C4.03003 5.37551 3.75658 5.45057 3.51552 5.59315C3.27446 5.73573 3.07428 5.9408 2.9351 6.18775C2.79593 6.4347 2.72266 6.71483 2.72266 6.99998C2.72266 7.28514 2.79593 7.56527 2.9351 7.81222C3.07428 8.05917 3.27446 8.26424 3.51552 8.40682C3.75658 8.54939 4.03003 8.62445 4.30838 8.62445C4.58674 8.62445 4.86018 8.54939 5.10124 8.40681C5.36743 8.24936 5.55762 8.00753 5.71506 7.74942C5.84434 7.53746 6.16723 7.26729 6.57429 7.50823C6.87302 7.68505 6.96537 8.07245 6.79976 8.39155C6.66035 8.66015 6.55122 8.94972 6.55122 9.26441C6.55122 9.54956 6.62449 9.82969 6.76366 10.0766C6.90284 10.3236 7.10301 10.5287 7.34407 10.6712C7.58513 10.8138 7.85858 10.8889 8.13693 10.8889C8.41528 10.8889 8.68872 10.8138 8.92978 10.6712C9.17084 10.5287 9.37101 10.3236 9.51019 10.0766C9.64936 9.82969 9.72263 9.54956 9.72263 9.26441C9.72264 8.97926 9.64937 8.69913 9.51019 8.45218C9.37102 8.20524 9.17084 8.00017 8.92979 7.85759Z" fill="white"/>
</svg>
